# xmcd
#
# Track frame offsets:
#	150
#	67229
#	123512
#	166667
#	206532
#
# Disc length: 3075 seconds
#
# Revision: 1
# Processed by: cddbd v1.5.2PL0 Copyright (c) Steve Scherf et al.
# Submitted via: audiograbber 1.83.01
#
DISCID=430c0105
DTITLE=Grateful Dead - 93-02-23 Oakland Coliseum Arena, Oakland CA
DYEAR=1900
DGENRE=
TTITLE0=Space
TTITLE1=The Other One
TTITLE2=Stella Blue
TTITLE3=Turn On Your Lovelight
TTITLE4=Brokedown Palace
EXTD=
EXTT0=
EXTT1=
EXTT2=
EXTT3=
EXTT4=
PLAYORDER=
